<?xml version="1.0" encoding="UTF-8" standalone="no"?>
<svg
   xmlns:dc="http://purl.org/dc/elements/1.1/"
   xmlns:cc="http://creativecommons.org/ns#"
   xmlns:rdf="http://www.w3.org/1999/02/22-rdf-syntax-ns#"
   xmlns:svg="http://www.w3.org/2000/svg"
   xmlns="http://www.w3.org/2000/svg"
   xmlns:sodipodi="http://sodipodi.sourceforge.net/DTD/sodipodi-0.dtd"
   xmlns:inkscape="http://www.inkscape.org/namespaces/inkscape"
   sodipodi:docname="historic-york.svg"
   inkscape:version="1.0 (4035a4f, 2020-05-01)"
   id="svg2025"
   version="1.1"
   viewBox="0 0 50 50"
   height="50mm"
   width="50mm">
  <defs
     id="defs2019" />
  <sodipodi:namedview
     inkscape:window-maximized="0"
     inkscape:window-y="23"
     inkscape:window-x="0"
     inkscape:window-height="800"
     inkscape:window-width="1252"
     showgrid="false"
     inkscape:document-rotation="0"
     inkscape:current-layer="layer1"
     inkscape:document-units="mm"
     inkscape:cy="89.48731"
     inkscape:cx="53.620546"
     inkscape:zoom="1.0422621"
     inkscape:pageshadow="2"
     inkscape:pageopacity="0.0"
     borderopacity="1.0"
     bordercolor="#666666"
     pagecolor="#ffffff"
     id="base" />
  <metadata
     id="metadata2022">
    <rdf:RDF>
      <cc:Work
         rdf:about="">
        <dc:format>image/svg+xml</dc:format>
        <dc:type
           rdf:resource="http://purl.org/dc/dcmitype/StillImage" />
        <dc:title></dc:title>
      </cc:Work>
    </rdf:RDF>
  </metadata>
  <g
     transform="translate(-44.93232,-140.63562)"
     id="layer1"
     inkscape:groupmode="layer"
     inkscape:label="Layer 1">
    <g
       id="g2607">
      <rect
         style="fill:#eeeeee;stroke-width:0;stroke-linecap:round;stroke-linejoin:round"
         id="rect2600"
         width="50"
         height="50"
         x="44.93232"
         y="140.63562"
         ry="4.99999" />
      <g
         id="g1030"
         style="stroke-width:1.32292;stroke-miterlimit:4;stroke-dasharray:none"
         transform="matrix(1.1220473,0,0,1.1220473,-53.100673,7.6899814)">
        <g
           transform="matrix(0.76273493,0,0,0.76273493,26.016227,33.398751)"
           id="g1025"
           style="stroke-width:1.73444;stroke-miterlimit:4;stroke-dasharray:none">
          <path
             id="path876-1"
             style="fill:none;stroke:#000000;stroke-width:1.73444;stroke-linecap:butt;stroke-linejoin:miter;stroke-miterlimit:4;stroke-dasharray:none;stroke-opacity:1"
             d="m 132.15247,147.87815 -8.24461,3.0008 0.032,-12.82503 c 0,0 -0.45305,-5.66846 -5.53069,-4.55232 -3.35525,0.73752 -6.6638,2.3853 -6.64262,8.98304 0.0209,6.50503 -2e-5,12.81339 -2e-5,12.81339 l -4.4141,1.6066 0.0319,-12.825 c 0,0 -0.45307,-5.66845 -5.53072,-4.55232 -3.355229,0.73754 -6.764322,2.42168 -6.743067,9.01962 0.02093,6.50501 -1e-5,12.81338 -1e-5,12.81338 l -7.962055,2.89795 0.0021,-30.60654 45.000562,-16.37886 z"
             sodipodi:nodetypes="cccsccccssccccc" />
          <path
             style="fill:none;stroke:#000000;stroke-width:1.73444;stroke-linecap:butt;stroke-linejoin:miter;stroke-miterlimit:4;stroke-dasharray:none;stroke-opacity:1"
             d="m 132.15213,143.40498 -8.24461,3.0008 0.032,-12.82503 c 0,0 -0.45305,-5.66847 -5.5307,-4.55233 -3.35525,0.73752 -6.66379,2.3853 -6.64261,8.98306 0.0209,6.50502 -1e-5,12.81337 -1e-5,12.81337 l -4.41412,1.6066 0.0319,-12.82499 c 0,0 -0.45306,-5.66845 -5.5307,-4.55232 -3.355244,0.73754 -6.764332,2.42169 -6.743083,9.01962 0.02092,6.50501 -4e-6,12.81339 -4e-6,12.81339 l -7.962055,2.89795"
             id="path1021" />
        </g>
      </g>
    </g>
  </g>
</svg>
