<?xml version="1.0" encoding="UTF-8" standalone="no"?>
<svg
   xmlns:dc="http://purl.org/dc/elements/1.1/"
   xmlns:cc="http://creativecommons.org/ns#"
   xmlns:rdf="http://www.w3.org/1999/02/22-rdf-syntax-ns#"
   xmlns:svg="http://www.w3.org/2000/svg"
   xmlns="http://www.w3.org/2000/svg"
   xmlns:sodipodi="http://sodipodi.sourceforge.net/DTD/sodipodi-0.dtd"
   xmlns:inkscape="http://www.inkscape.org/namespaces/inkscape"
   inkscape:version="1.0 (4035a4f, 2020-05-01)"
   sodipodi:docname="sidus.svg"
   id="svg2633"
   version="1.1"
   viewBox="0 0 45.970051 34.351169"
   height="34.35117mm"
   width="45.970051mm">
  <defs
     id="defs2627">
    <clipPath
       id="clipPath3216"
       clipPathUnits="userSpaceOnUse">
      <rect
         y="91.304443"
         x="-0.89260215"
         height="35.3232"
         width="46.977024"
         id="rect3218"
         style="fill:#0000ff;fill-opacity:1;stroke-width:0;stroke-linecap:round;stroke-linejoin:round" />
    </clipPath>
  </defs>
  <sodipodi:namedview
     inkscape:window-maximized="0"
     inkscape:window-y="23"
     inkscape:window-x="0"
     inkscape:window-height="800"
     inkscape:window-width="1252"
     inkscape:snap-global="false"
     showgrid="false"
     inkscape:document-rotation="0"
     inkscape:current-layer="layer1"
     inkscape:document-units="mm"
     inkscape:cy="51.279784"
     inkscape:cx="86.058951"
     inkscape:zoom="3.2547896"
     inkscape:pageshadow="2"
     inkscape:pageopacity="0.0"
     borderopacity="1.0"
     bordercolor="#666666"
     pagecolor="#ffffff"
     id="base" />
  <metadata
     id="metadata2630">
    <rdf:RDF>
      <cc:Work
         rdf:about="">
        <dc:format>image/svg+xml</dc:format>
        <dc:type
           rdf:resource="http://purl.org/dc/dcmitype/StillImage" />
      </cc:Work>
    </rdf:RDF>
  </metadata>
  <g
     transform="translate(-18.773738,-97.711651)"
     id="layer1"
     inkscape:groupmode="layer"
     inkscape:label="Layer 1">
    <path
       sodipodi:nodetypes="cczzscccccszzszccc"
       id="path3269"
       d="m 18.906436,131.93053 h 21.296375 c 0,0 4.725519,0.0418 6.923765,-2.79706 2.198246,-2.83883 1.282099,-8.7064 -1.675223,-12.07007 -2.957322,-3.36367 -6.74356,-7.2225 -7.231729,-8.10731 -0.488169,-0.88481 0.610211,-0.91531 0.610211,-0.91531 l 13.699245,-0.0305 0.09153,23.92025 h 11.990652 l -0.06102,-34.049759 c 0,0 -27.612061,-0.08268 -32.036093,0 -4.438381,0.08295 -6.767586,2.015859 -8.28465,4.547279 -1.517064,2.53141 -1.781141,7.57619 -0.34984,9.76217 1.431301,2.18598 2.471356,2.53238 5.827518,5.30884 3.356163,2.77646 3.337263,3.30286 3.356163,3.8842 0.0189,0.58138 -0.945828,0.66188 -0.945828,0.66188 l -13.180565,-0.061 z"
       style="fill:#26b731;fill-opacity:1;stroke:#000000;stroke-width:0.264583px;stroke-linecap:butt;stroke-linejoin:miter;stroke-opacity:1" />
  </g>
</svg>
