<svg id="svg" xmlns="http://www.w3.org/2000/svg" xmlns:xlink="http://www.w3.org/1999/xlink" width="400" height="400" viewBox="0, 0, 400,400"><g id="svgg"><path id="path0" d="M217.124 19.803 C 214.423 20.648,204.840 25.730,199.344 29.231 C 184.973 38.388,177.263 57.325,174.517 90.212 C 173.302 104.759,174.128 217.510,175.460 219.000 C 175.567 219.119,178.215 217.878,181.346 216.241 L 187.037 213.266 186.945 210.204 C 186.895 208.520,186.241 199.969,185.493 191.200 C 178.879 113.688,181.433 70.244,194.137 44.180 C 206.072 19.692,223.935 20.924,228.640 46.561 C 233.093 70.822,226.180 156.756,216.336 199.510 L 215.257 204.200 208.290 209.068 C 155.085 246.244,114.039 291.013,91.049 336.941 C 72.915 373.169,90.352 391.606,126.190 374.097 C 169.997 352.695,198.181 305.302,221.228 214.286 C 222.960 207.447,224.666 201.570,225.019 201.227 C 225.372 200.883,232.566 196.157,241.005 190.724 C 263.341 176.346,271.495 170.396,283.828 159.477 C 294.848 149.720,296.849 148.069,302.461 144.109 C 305.705 141.820,310.198 138.805,312.444 137.409 C 317.904 134.017,317.296 133.912,309.720 136.938 C 299.720 140.931,291.304 146.749,275.926 160.300 C 264.544 170.330,258.250 175.428,250.794 180.658 C 243.829 185.543,225.716 197.321,225.500 197.105 C 225.412 197.016,226.177 192.691,227.201 187.493 C 233.371 156.182,236.276 131.033,239.140 84.127 C 241.845 39.825,238.971 23.852,227.561 19.773 C 225.135 18.906,219.944 18.921,217.124 19.803 M211.649 219.064 C 203.098 253.186,193.162 281.967,182.795 302.646 C 159.649 348.810,137.159 371.581,112.963 373.349 C 98.703 374.391,91.146 361.350,96.520 344.974 C 107.138 312.622,144.379 264.539,184.656 231.179 C 193.534 223.825,213.757 208.386,214.126 208.680 C 214.183 208.726,213.069 213.399,211.649 219.064 " stroke="none" fill="#000000" fill-rule="evenodd"></path></g></svg>